<?xml version="1.0" encoding="UTF-8"?><svg id="_レイヤー_1" xmlns="http://www.w3.org/2000/svg" viewBox="0 0 365.94 90"><defs><style>.cls-1{fill:#fff;}.cls-2{fill:#751f1f;}.cls-3{fill:none;stroke:#000;}.cls-3,.cls-4{stroke-miterlimit:10;}.cls-4{stroke:#fff;stroke-width:2px;}.cls-4,.cls-5{fill:#333;}.cls-6{fill:#91000b;}.cls-7{fill:#c61e1e;}.cls-8{fill:#e87474;}.cls-9{fill:#c40106;}.cls-10{fill:#92220f;}.cls-11{fill:#d63030;}.cls-12{fill:#931515;}.cls-13{fill:#f2cc61;}</style></defs><g><g><path class="cls-13" d="M73.2,75.84c-.38,.28-.67,.62-.89,.98s-.36,.74-.42,1.12l-.24,.16h0s-.34,.23-.68,.45c-.35,.21-.69,.43-.69,.43,.14-.27,.25-.57,.31-.9,.18-1.12-.24-2.19-.9-2.76-.74,.18-1.38,.9-1.56,2-.18,.98,.04,1.97,.56,2.6l-.25,.14s-.36,.2-.71,.4c-.18,.1-.36,.19-.5,.26l-.23,.11c.16-.26,.3-.54,.38-.88,.27-1.1-.06-2.2-.68-2.82-.76,.12-1.44,.79-1.72,1.87-.25,.98-.12,1.96,.35,2.65l-.27,.12s-.37,.17-.74,.33c-.37,.17-.75,.32-.75,.32,.19-.24,.34-.52,.45-.85,.36-1.08,.12-2.19-.45-2.86-.39,.02-.76,.19-1.08,.49-.33,.29-.6,.7-.79,1.23-.33,.95-.27,1.96,.14,2.67l-.27,.1-1.54,.53c.2-.23,.38-.5,.51-.82,.44-1.04,.3-2.17-.21-2.89-.39-.02-.77,.12-1.12,.4-.34,.27-.66,.65-.88,1.16-.41,.91-.43,1.94-.08,2.68,0,0-.07,.02-.14,.04-.07,.02-.14,.04-.14,.04l-1.58,.4c.22-.21,.42-.47,.58-.77,.53-.99,.48-2.13,.03-2.89-.77-.11-1.58,.44-2.12,1.39-.48,.87-.59,1.89-.3,2.65l-.28,.06s-.1,.02-.25,.05c-.15,.02-.35,.06-.55,.09-.4,.06-.8,.13-.8,.13,.24-.19,.46-.43,.64-.72,.61-.94,.65-2.09,.26-2.88-.76-.16-1.62,.3-2.23,1.22-.55,.82-.74,1.83-.51,2.61l-.29,.03s-.4,.05-.81,.08-.81,.05-.81,.05c.25-.17,.49-.39,.7-.65,.68-.9,.81-2.05,.49-2.86-.74-.19-1.64,.15-2.32,1.04-.61,.78-.88,1.76-.72,2.56h-.29l.02,.72h.29c-.12,.8,.2,1.78,.97,2.51,.85,.77,2,1.04,2.8,.65,.19-.88-.24-1.93-1.09-2.7-.26-.24-.53-.42-.81-.55l.82-.06c.41-.03,.82-.08,.82-.08l.29-.03c-.05,.82,.34,1.76,1.17,2.43,.91,.73,2.07,.85,2.85,.43,.12-.89-.39-1.91-1.3-2.62-.28-.21-.56-.37-.85-.48,0,0,.41-.06,.82-.13,.2-.03,.41-.06,.56-.09s.25-.05,.25-.05l.29-.06c0,.82,.48,1.72,1.36,2.32,.97,.67,2.13,.67,2.88,.2,.05-.89-.55-1.88-1.51-2.5-.29-.19-.59-.32-.89-.4l1.6-.4s.07-.02,.14-.04l.14-.04c.08,.82,.62,1.68,1.54,2.19,.51,.28,1.06,.43,1.56,.41,.5-.02,.97-.17,1.32-.44-.02-.89-.7-1.83-1.71-2.37-.31-.16-.61-.26-.91-.33l1.56-.54,.28-.1c.15,.81,.76,1.63,1.72,2.06,.53,.24,1.09,.33,1.59,.28,.5-.06,.95-.26,1.28-.55-.1-.89-.84-1.77-1.89-2.22-.32-.13-.63-.21-.94-.26,0,0,.39-.15,.76-.32,.38-.17,.75-.34,.75-.34l.27-.12c.21,.78,.89,1.58,1.88,1.92,1.09,.39,2.24,.17,2.84-.51-.17-.88-.98-1.7-2.06-2.05-.33-.11-.65-.17-.96-.19,0,0,.09-.05,.23-.12,.14-.07,.32-.16,.5-.26,.36-.2,.72-.4,.72-.4l.26-.14c.27,.77,1.01,1.49,2.03,1.77,1.11,.29,2.25-.01,2.78-.73-.24-.86-1.12-1.61-2.22-1.88-.34-.09-.67-.12-.98-.11,0,0,.35-.22,.7-.43,.34-.23,.69-.46,.69-.46l.25-.17c.38,.09,.81,.1,1.23,0,.42-.1,.85-.3,1.25-.59,.97-.71,1.4-1.8,1.27-2.68-.87-.31-1.94-.1-2.85,.57h.03Z"/><path class="cls-13" d="M44.2,85.95c.16-.81-.11-1.78-.72-2.56-.68-.9-1.58-1.23-2.32-1.04-.32,.81-.19,1.96,.49,2.86,.21,.27,.44,.48,.7,.65,0,0-.41-.03-.81-.05-.41-.03-.81-.08-.81-.08l-.29-.03c.23-.79,.04-1.79-.51-2.61-.61-.92-1.47-1.38-2.23-1.22-.39,.78-.35,1.94,.26,2.88,.18,.29,.4,.52,.64,.72,0,0-.4-.06-.8-.13-.2-.03-.4-.06-.55-.09-.15-.03-.25-.05-.25-.05l-.28-.06c.29-.77,.18-1.79-.3-2.65-.54-.94-1.35-1.5-2.12-1.39-.45,.76-.5,1.89,.03,2.89,.16,.3,.36,.56,.58,.77l-1.58-.4s-.07-.02-.14-.04c-.07-.02-.14-.04-.14-.04,.35-.74,.33-1.77-.08-2.68-.22-.51-.54-.88-.88-1.16-.34-.27-.73-.41-1.12-.4-.51,.72-.65,1.85-.21,2.89,.13,.31,.31,.59,.51,.82l-1.54-.53-.27-.1c.41-.71,.46-1.72,.14-2.67-.18-.52-.46-.94-.79-1.23-.32-.3-.69-.48-1.08-.49-.57,.68-.8,1.79-.45,2.86,.11,.33,.26,.61,.45,.85,0,0-.38-.15-.75-.32s-.74-.33-.74-.33l-.27-.12c.47-.68,.6-1.67,.35-2.65-.28-1.08-.96-1.75-1.72-1.87-.62,.63-.94,1.72-.68,2.82,.08,.34,.22,.62,.38,.88l-.23-.11c-.14-.07-.32-.16-.5-.26-.36-.2-.71-.4-.71-.4l-.25-.14c.52-.64,.74-1.63,.56-2.6-.19-1.11-.82-1.82-1.56-2-.67,.57-1.08,1.64-.9,2.76,.06,.33,.17,.63,.31,.9,0,0-.35-.21-.69-.43-.34-.23-.68-.45-.68-.45h0l-.24-.16c-.05-.39-.2-.77-.42-1.12-.21-.37-.51-.7-.89-.98-.91-.67-1.98-.88-2.85-.57-.14,.87,.3,1.97,1.27,2.68,.4,.3,.83,.49,1.25,.59,.43,.09,.85,.08,1.23,0l.25,.17s.34,.23,.69,.46c.35,.22,.7,.43,.7,.43-.31,0-.64,.02-.98,.11-1.1,.27-1.98,1.02-2.22,1.88,.53,.72,1.67,1.02,2.78,.73,1.02-.28,1.76-1,2.03-1.77l.26,.14s.36,.2,.72,.4c.18,.1,.37,.19,.5,.26,.14,.07,.23,.12,.23,.12-.31,.02-.64,.08-.96,.19-1.08,.36-1.89,1.18-2.06,2.05,.59,.67,1.74,.89,2.84,.51,.99-.35,1.67-1.14,1.88-1.92l.27,.12s.38,.17,.75,.34,.76,.32,.76,.32c-.31,.05-.62,.12-.94,.26-1.05,.45-1.8,1.33-1.89,2.22,.33,.3,.77,.5,1.28,.55,.51,.04,1.06-.04,1.59-.28,.96-.43,1.57-1.26,1.72-2.06l.28,.1,1.56,.54c-.3,.06-.61,.16-.91,.33-1.01,.54-1.68,1.48-1.71,2.37,.35,.27,.81,.43,1.32,.44,.5,.02,1.06-.13,1.56-.41,.92-.51,1.46-1.37,1.54-2.19,0,0,.07,.02,.14,.04,.07,.02,.14,.04,.14,.04l1.6,.4c-.29,.09-.59,.22-.89,.4-.96,.62-1.56,1.62-1.51,2.5,.74,.47,1.9,.47,2.88-.2,.88-.59,1.35-1.49,1.36-2.32l.29,.06s.1,.02,.25,.05c.15,.02,.36,.06,.56,.09,.41,.06,.82,.13,.82,.13-.29,.11-.58,.27-.85,.48-.91,.71-1.42,1.73-1.3,2.62,.78,.42,1.94,.3,2.85-.43,.83-.67,1.22-1.61,1.17-2.43l.29,.03s.41,.05,.82,.08l.82,.06c-.28,.14-.55,.32-.81,.55-.85,.77-1.28,1.82-1.09,2.7,.81,.39,1.95,.12,2.8-.65,.77-.73,1.09-1.71,.97-2.51h.29l.02-.71h-.26Z"/></g><path d="M73.42,26.03l-.46-3.53-3.62,.19h-.53c-2.99,0-13.3-.64-20.24-8.85l-3-3.54-2.99,3.54c-6.94,8.21-17.25,8.85-20.24,8.85h-.52l-3.65-.22-.45,3.56c-.05,.39-1.19,9.73,1.36,20.77,3.46,14.98,12.07,25.91,24.89,31.61l1.61,.71,1.61-.71c12.82-5.7,21.43-16.63,24.89-31.61,2.55-11.05,1.41-20.38,1.36-20.77h-.02Zm-3.43,20.31c-3.31,14.32-11.5,24.75-23.69,30.17l-.73,.32-.73-.32c-12.19-5.42-20.38-15.85-23.69-30.17-2.47-10.69-1.37-19.68-1.32-20.05l.21-1.62,1.66,.1s.25,.01,.65,.01c3.23,0,14.34-.69,21.87-9.6l1.36-1.61,1.36,1.61c7.53,8.91,18.65,9.6,21.87,9.6,.39,0,.62-.01,.65-.01l1.65-.09,.21,1.61c.05,.38,1.15,9.36-1.32,20.05h-.01Z"/><path class="cls-3" d="M45.57,74.93c28.53-12.69,23.99-48.43,23.99-48.43,0,0-14.62,.87-23.99-10.21-9.37,11.08-23.99,10.21-23.99,10.21,0,0-4.55,35.74,23.99,48.43Z"/><polygon class="cls-10" points="45.57 0 46.99 2.87 50.16 3.33 47.86 5.56 48.41 8.72 45.57 7.23 42.74 8.72 43.28 5.56 40.99 3.33 44.15 2.87 45.57 0"/><polygon class="cls-10" points="62.38 8.72 63.8 11.59 66.97 12.05 64.67 14.29 65.22 17.44 62.38 15.95 59.55 17.44 60.09 14.29 57.8 12.05 60.96 11.59 62.38 8.72"/><polygon class="cls-10" points="28.76 8.72 30.18 11.59 33.35 12.05 31.05 14.29 31.6 17.44 28.76 15.95 25.93 17.44 26.47 14.29 24.18 12.05 27.35 11.59 28.76 8.72"/><path class="cls-6" d="M75.88,82.41c-5-2.8-15.72-7.94-30.24-8.14-15.51-.21-26.97,5.33-31.98,8.14-1.74-2.71-3.49-5.43-5.23-8.14,5.19-3.25,18.61-10.7,37.21-10.47,17.58,.22,30.25,7.19,35.47,10.47-1.74,2.71-3.49,5.43-5.23,8.14Z"/><path class="cls-6" d="M20.49,80.18c5.85-2.56,11.23-3.63,15.35-4.09,.85,.51,1.71,1.02,2.56,1.54-4.89,.55-11.97,2.02-19.45,6.14-3.27,1.81-6,3.78-8.2,5.63v-5.81c-1.55-.97-3.1-1.94-4.65-2.91,1.16-.78,2.33-1.55,3.49-2.33,1.16,1.94,2.33,3.88,3.49,5.81,2.09-1.35,4.56-2.73,7.41-3.98h0Z"/><path class="cls-6" d="M67.07,79.67c-4.54-1.78-8.72-2.88-12.28-3.58-.85,.51-1.71,1.02-2.56,1.54,4.4,.73,10.14,2.17,16.38,5.12,4.09,1.93,7.48,4.08,10.18,6.07v-4.65c1.74-1.16,3.49-2.33,5.23-3.49-1.16-.97-2.33-1.94-3.49-2.91-1.36,2.13-2.71,4.26-4.07,6.4-2.65-1.51-5.78-3.08-9.39-4.49h0Z"/><g><path class="cls-1" d="M25.67,73.64l-.09-.28,.92-.29,.1,.31c.11,.36,.35,.5,.68,.39,.3-.1,.45-.34,.33-.72-.15-.46-.4-.59-1.18-.82-1-.28-1.4-.66-1.63-1.36-.28-.87,.05-1.58,.99-1.88s1.59,.1,1.87,.99l.06,.19-.92,.29-.07-.22c-.12-.37-.33-.51-.66-.41-.3,.1-.43,.33-.31,.69,.13,.41,.4,.54,1.18,.76,1.02,.28,1.4,.67,1.63,1.4,.29,.9-.05,1.62-1.01,1.93-.95,.3-1.61-.1-1.89-.98h0Z"/><path class="cls-1" d="M30.72,72.09l-.94-4.16,1-.23,.96,4.23c.09,.39,.3,.52,.63,.45s.47-.28,.38-.67l-.96-4.23,.96-.22,.94,4.16c.22,.95-.17,1.62-1.14,1.85-.98,.22-1.61-.22-1.83-1.17h0Z"/><path class="cls-1" d="M35.5,66.76l1.26-.17,1.46,3.21-.44-3.34,.91-.12,.75,5.68-1.02,.14-1.79-3.93,.54,4.1-.91,.12-.75-5.68h0Z"/><path class="cls-1" d="M41.49,70.42v-.29l.95-.04v.33c.03,.38,.22,.57,.57,.56,.32-.01,.52-.21,.51-.61-.02-.48-.23-.68-.92-1.1-.89-.54-1.18-1.01-1.21-1.74-.04-.92,.46-1.51,1.45-1.55s1.51,.51,1.55,1.44v.2l-.96,.04v-.23c-.03-.39-.2-.58-.54-.57-.32,.01-.5,.21-.48,.59,.02,.43,.24,.63,.94,1.04,.91,.53,1.18,1.01,1.21,1.78,.04,.95-.47,1.55-1.48,1.6-1,.04-1.53-.52-1.57-1.44h-.02Z"/><path class="cls-1" d="M46.72,70.27l.12-2.83c.04-.97,.6-1.51,1.57-1.47s1.47,.62,1.43,1.59l-.02,.51-.97-.04,.02-.56c.02-.4-.16-.6-.48-.61s-.52,.17-.53,.57l-.12,2.93c-.02,.4,.16,.6,.48,.61s.52-.17,.53-.57l.03-.73,.97,.04-.03,.68c-.04,.97-.59,1.51-1.56,1.47s-1.48-.62-1.44-1.6h0Z"/><path class="cls-1" d="M52.56,66.35l1.01,.13-.3,2.3,1.09,.14,.3-2.3,1.01,.13-.75,5.68-1.01-.13,.33-2.47-1.09-.14-.33,2.47-1.01-.13,.75-5.68Z"/><path class="cls-1" d="M57.44,71.4l.61-2.73c.22-.96,.87-1.39,1.85-1.17s1.39,.89,1.18,1.85l-.61,2.73c-.21,.95-.87,1.39-1.86,1.17-.97-.22-1.38-.9-1.17-1.85Zm2.02,.5l.64-2.83c.09-.39-.06-.62-.39-.69-.33-.07-.55,.07-.64,.46l-.64,2.83c-.09,.38,.05,.62,.38,.69s.56-.08,.65-.46Z"/><path class="cls-1" d="M62.67,72.68l.85-2.67c.3-.94,.99-1.31,1.95-1s1.31,1.01,1.01,1.95l-.85,2.67c-.3,.93-.99,1.31-1.95,1-.95-.3-1.3-1.02-1-1.95h-.01Zm1.97,.68l.88-2.76c.12-.38,0-.62-.33-.72s-.56,.02-.68,.4l-.88,2.76c-.12,.37,0,.62,.32,.72s.57-.03,.69-.4Z"/></g><g><path class="cls-12" d="M44.56,27.98c-5.3,0-9.6,4.3-9.6,9.6s4.3,9.6,9.6,9.6V27.98Z"/><path class="cls-11" d="M47.27,39.73c5.23,0,9.48,4.24,9.48,9.48s-4.24,9.48-9.48,9.48v-18.96Z"/><path class="cls-2" d="M52.2,28.36h-4.68v4.8h0c.07,2.52,2.13,4.55,4.67,4.55s4.68-2.09,4.68-4.68-2.09-4.68-4.68-4.68h0Z"/><path class="cls-8" d="M39.82,58.68h4.68v-4.8h0c-.07-2.52-2.13-4.55-4.67-4.55s-4.68,2.09-4.68,4.68,2.09,4.68,4.68,4.68h-.01Z"/><path class="cls-7" d="M47.27,49.08v-9.35c5.19,0,9.41,4.18,9.47,9.35h-9.47Z"/><path class="cls-7" d="M44.56,37.71v9.48c-5.26,0-9.53-4.23-9.6-9.48h9.6Z"/></g><path class="cls-13" d="M83.43,60.31c1.07-.34,2.2-.19,2.88,.38-.05,.84-.77,1.69-1.86,2.02-.98,.3-1.99,.11-2.65-.38l-.13,.25-.36,.7c-.19,.35-.37,.69-.37,.69,.26-.15,.55-.27,.88-.35,1.09-.26,2.21-.03,2.84,.6-.11,.84-.9,1.63-2,1.88-1.01,.22-1.99-.05-2.61-.58l-.15,.24s-.21,.33-.41,.67c-.21,.33-.43,.66-.43,.66,.27-.13,.57-.23,.91-.28,1.1-.18,2.2,.14,2.79,.81-.18,.83-1.02,1.56-2.15,1.72-1.02,.15-1.98-.2-2.56-.78l-.16,.23-.43,.59c-.12,.16-.34,.19-.5,.07s-.19-.34-.08-.5l.43-.58,.14,.1-.14-.1,.16-.22c-.73-.36-1.36-1.16-1.64-2.09-.3-1.04-.08-1.94,.51-2.37,.84,.25,1.67,1.03,1.99,2.09,.1,.32,.13,.63,.12,.92,0,0,.21-.32,.42-.65,.2-.33,.41-.66,.41-.66l.14-.24c-.76-.3-1.45-1.05-1.79-1.96-.38-1.01-.23-1.92,.33-2.4,.86,.18,1.75,.9,2.15,1.93,.12,.31,.18,.62,.2,.91,0,0,.18-.34,.37-.68,.18-.34,.36-.69,.36-.69l.13-.25c-.78-.25-1.52-.94-1.94-1.82-.45-.98-.38-1.9,.15-2.42,.87,.12,1.81,.77,2.29,1.76,.15,.3,.23,.6,.26,.89,0,0,.16-.35,.32-.71,.16-.35,.3-.71,.3-.71l.11-.26c-.8-.19-1.59-.82-2.07-1.67-.53-.94-.52-1.87-.04-2.43,.88,.05,1.86,.63,2.42,1.58,.17,.29,.27,.58,.33,.87,0,0,.13-.36,.26-.73,.12-.37,.25-.73,.25-.73l.04-.13c.02-.07,.04-.13,.04-.13-.8-.12-1.66-.7-2.2-1.51-.62-.91-.63-1.82-.21-2.41,.86-.02,1.92,.49,2.53,1.4,.18,.27,.31,.56,.38,.84,0,0,.11-.37,.22-.74,.06-.18,.1-.37,.13-.51s.05-.24,.05-.24l.06-.27c-.81-.06-1.7-.57-2.3-1.34-.33-.43-.52-.87-.58-1.28-.07-.41-.02-.8,.18-1.11,.87-.08,1.93,.34,2.63,1.2,.22,.26,.37,.54,.46,.81,0,0,.09-.38,.15-.76,.06-.38,.13-.76,.13-.76l.05-.27c-.82,0-1.74-.44-2.38-1.16-.35-.4-.58-.82-.69-1.23-.1-.41-.07-.79,.11-1.12,.87-.15,1.95,.19,2.71,.99,.23,.24,.4,.51,.53,.77l.16-1.54,.03-.27c-.82,.06-1.75-.3-2.47-.97-.81-.74-1.07-1.63-.76-2.3,.86-.21,1.96,.04,2.76,.78,.24,.22,.43,.47,.57,.73l.07-1.54v-.28c-.81,.12-1.79-.17-2.56-.78-.86-.68-1.14-1.54-.93-2.23,.83-.28,1.96-.11,2.84,.57,.26,.21,.46,.44,.62,.68,0,0,0-.39-.01-.77-.03-.39-.06-.77-.06-.77l-.02-.27c-.8,.18-1.79-.03-2.59-.58-.86-.62-1.3-1.44-1.11-2.15,.81-.34,1.94-.26,2.87,.35,.28,.18,.51,.4,.7,.63l-.2-1.53-.04-.27c-.78,.25-1.79,.11-2.61-.38-.95-.54-1.42-1.34-1.27-2.06,.79-.4,1.92-.41,2.87,.13,.29,.16,.53,.36,.73,.58l-.29-1.52-.05-.27c-.76,.3-1.78,.25-2.67-.17-.49-.23-.87-.54-1.1-.88-.23-.34-.34-.72-.31-1.08,.74-.46,1.89-.56,2.89-.09,.3,.14,.55,.32,.76,.53,0,0-.1-.37-.19-.75-.04-.19-.11-.37-.15-.51l-.07-.23-.08-.26c-.73,.36-1.75,.38-2.66,.02-.5-.2-.88-.48-1.15-.8-.28-.32-.42-.68-.41-1.05,.71-.51,1.83-.69,2.87-.31,.31,.12,.59,.27,.82,.46,0,0-.03-.09-.08-.23s-.12-.32-.19-.5c-.14-.36-.28-.72-.28-.72l-.1-.26c-.71,.42-1.72,.51-2.64,.22-1.04-.32-1.69-.98-1.71-1.72,.67-.57,1.77-.83,2.83-.52,.32,.09,.6,.23,.84,.4l-.63-1.41-.11-.25c-.67,.47-1.67,.64-2.63,.43-1.07-.23-1.72-.87-1.82-1.59,.61-.61,1.72-.97,2.79-.74,.32,.07,.61,.19,.86,.34,0,0-.18-.34-.36-.69-.09-.17-.18-.34-.26-.46-.07-.12-.12-.21-.12-.21l.06-.03-.06,.03-.14-.24c-.76-.14-1.46-.6-1.94-1.35-.6-.88-.67-1.95-.28-2.77,.88-.09,1.87,.4,2.5,1.35,.51,.8,.58,1.71,.34,2.42l.14,.24h0s.05,.08,.13,.21c.08,.12,.17,.3,.26,.47l.36,.7c.02-.3,.08-.61,.2-.93,.39-1.06,1.18-1.85,2.06-2.05,.66,.54,.85,1.65,.47,2.71-.35,.96-1.12,1.63-1.9,1.86l.11,.26,.64,1.43c.04-.29,.12-.6,.26-.91,.46-1.02,1.34-1.77,2.21-1.89,.58,.61,.75,1.7,.27,2.73-.45,.94-1.26,1.55-2.06,1.72l.1,.26s.14,.37,.28,.73c.07,.18,.14,.37,.19,.5,.05,.14,.08,.23,.08,.23,.07-.29,.16-.59,.32-.88,.52-.98,1.45-1.66,2.34-1.71,.27,.32,.43,.76,.46,1.24,.02,.48-.12,1.01-.4,1.51-.51,.9-1.36,1.45-2.17,1.56l.08,.27s.03,.09,.07,.23,.11,.33,.15,.52c.1,.38,.19,.76,.19,.76,.09-.29,.22-.58,.41-.86,.61-.94,1.56-1.54,2.46-1.53,.53,.68,.45,1.8-.16,2.74-.56,.86-1.45,1.34-2.27,1.38l.05,.27,.3,1.54c.1-.28,.25-.56,.46-.83,.68-.89,1.71-1.42,2.59-1.34,.43,.72,.33,1.83-.35,2.72-.65,.81-1.58,1.23-2.4,1.21l.04,.28,.21,1.55c.12-.27,.28-.53,.51-.79,.73-.84,1.79-1.29,2.67-1.14,.39,.75,.23,1.84-.57,2.69-.7,.76-1.66,1.1-2.47,1.02l.02,.28,.06,.78c0,.39,.01,.78,.01,.78,.15-.26,.35-.51,.6-.75,.79-.78,1.87-1.14,2.74-.93,.36,.78,.04,1.86-.78,2.64-.75,.71-1.72,.97-2.53,.83v.28l-.07,1.57c.17-.25,.38-.48,.64-.7,.87-.71,1.99-1,2.83-.72,.25,.8-.11,1.86-.98,2.57-.8,.65-1.82,.83-2.6,.63l-.03,.28-.16,1.56c.18-.23,.4-.46,.68-.65,.91-.65,2.05-.84,2.86-.5,.1,.41,.04,.87-.15,1.31-.19,.44-.53,.86-1.01,1.18-.86,.58-1.87,.69-2.65,.43l-.05,.28s-.06,.39-.13,.77c-.06,.39-.15,.77-.15,.77,.21-.22,.45-.42,.73-.6,.94-.58,2.09-.69,2.88-.28,.07,.42,0,.88-.23,1.3-.25,.42-.63,.81-1.12,1.09-.89,.52-1.91,.55-2.66,.23l-.06,.27s-.02,.1-.05,.24c-.03,.14-.08,.33-.14,.52l-.22,.75c.22-.2,.48-.38,.79-.53,1.01-.5,2.13-.52,2.9-.06,.1,.85-.53,1.78-1.54,2.28-.92,.45-1.93,.41-2.66,.03,0,0-.02,.07-.04,.13-.02,.07-.05,.13-.05,.13,0,0-.13,.37-.25,.74-.13,.37-.27,.74-.27,.74,.23-.19,.5-.35,.82-.48,1.03-.43,2.18-.36,2.9,.16,.02,.85-.63,1.74-1.7,2.16-.96,.38-1.98,.25-2.67-.18l-.11,.26s-.15,.36-.31,.72c-.15,.36-.32,.72-.32,.72,.25-.17,.53-.31,.85-.42h-.03Z"/><path class="cls-13" d="M7.01,60.93c-1.07-.34-2.2-.19-2.88,.38,.05,.84,.77,1.69,1.86,2.02,.98,.3,1.99,.11,2.65-.38l.13,.25s.18,.35,.36,.7c.19,.35,.37,.69,.37,.69-.26-.15-.55-.27-.88-.35-1.09-.26-2.21-.03-2.84,.6,.11,.84,.9,1.63,2,1.88,1.01,.22,1.99-.05,2.61-.58l.15,.24s.21,.33,.41,.67c.21,.33,.43,.66,.43,.66-.27-.13-.57-.23-.91-.28-1.1-.18-2.2,.14-2.79,.81,.18,.83,1.02,1.56,2.15,1.72,1.02,.15,1.98-.2,2.56-.78l.16,.23,.43,.59c.12,.16,.34,.19,.5,.07s.19-.34,.08-.5l-.43-.58-.14,.1,.14-.1-.16-.22c.73-.36,1.36-1.16,1.64-2.09,.3-1.04,.08-1.94-.51-2.37-.84,.25-1.67,1.03-1.99,2.09-.1,.32-.13,.63-.12,.92,0,0-.21-.32-.42-.65-.2-.33-.41-.66-.41-.66l-.14-.24c.76-.3,1.45-1.05,1.79-1.96,.38-1.01,.23-1.92-.33-2.4-.86,.18-1.75,.9-2.15,1.93-.12,.31-.18,.62-.2,.91,0,0-.18-.34-.37-.68-.18-.34-.36-.69-.36-.69l-.13-.25c.78-.25,1.52-.94,1.94-1.82,.45-.98,.38-1.9-.15-2.42-.87,.12-1.81,.77-2.29,1.76-.15,.3-.23,.6-.26,.89,0,0-.16-.35-.32-.71-.16-.35-.3-.71-.3-.71l-.11-.26c.8-.19,1.59-.82,2.07-1.67,.53-.94,.52-1.87,.04-2.43-.88,.05-1.86,.63-2.42,1.58-.17,.29-.27,.58-.33,.87,0,0-.13-.36-.26-.73-.12-.37-.25-.73-.25-.73l-.04-.13c-.02-.07-.04-.13-.04-.13,.8-.12,1.66-.7,2.2-1.51,.62-.91,.63-1.82,.21-2.41-.86-.02-1.92,.49-2.53,1.4-.18,.27-.31,.56-.38,.84,0,0-.11-.37-.22-.74-.06-.18-.1-.37-.13-.51s-.05-.24-.05-.24l-.06-.27c.81-.06,1.7-.57,2.3-1.34,.33-.43,.52-.87,.58-1.28,.07-.41,.02-.8-.18-1.11-.87-.08-1.93,.34-2.63,1.2-.22,.26-.37,.54-.46,.81,0,0-.09-.38-.15-.76-.06-.38-.13-.76-.13-.76l-.05-.27c.82,0,1.74-.44,2.38-1.16,.35-.4,.58-.82,.69-1.23,.1-.41,.07-.79-.11-1.12-.87-.15-1.95,.19-2.71,.99-.23,.24-.4,.51-.53,.77l-.16-1.54-.03-.27c.82,.06,1.75-.3,2.47-.97,.81-.74,1.07-1.63,.76-2.3-.86-.21-1.96,.04-2.76,.78-.24,.22-.43,.47-.57,.73l-.07-1.54v-.28c.81,.12,1.79-.17,2.56-.78,.86-.68,1.14-1.54,.93-2.23-.83-.28-1.96-.11-2.84,.57-.26,.21-.46,.44-.62,.68,0,0,0-.39,.01-.77,.03-.39,.06-.77,.06-.77l.02-.27c.8,.18,1.79-.03,2.59-.58,.86-.62,1.3-1.44,1.11-2.15-.81-.34-1.94-.26-2.87,.35-.28,.18-.51,.4-.7,.63l.2-1.53,.04-.27c.78,.25,1.79,.11,2.61-.38,.95-.54,1.42-1.34,1.27-2.06-.79-.4-1.92-.41-2.87,.13-.29,.16-.53,.36-.73,.58l.29-1.52,.05-.27c.76,.3,1.78,.25,2.67-.17,.49-.23,.87-.54,1.1-.88,.23-.34,.34-.72,.31-1.08-.74-.46-1.89-.56-2.89-.09-.3,.14-.55,.32-.76,.53,0,0,.1-.37,.19-.75,.04-.19,.11-.37,.15-.51l.07-.23,.08-.26c.73,.36,1.75,.38,2.66,.02,.5-.2,.88-.48,1.15-.8,.28-.32,.42-.68,.41-1.05-.71-.51-1.83-.69-2.87-.31-.31,.12-.59,.27-.82,.46,0,0,.03-.09,.08-.23s.12-.32,.19-.5c.14-.36,.28-.72,.28-.72l.1-.26c.71,.42,1.72,.51,2.64,.22,1.04-.32,1.69-.98,1.71-1.72-.67-.57-1.77-.83-2.83-.52-.32,.09-.6,.23-.84,.4l.63-1.41,.11-.25c.67,.47,1.67,.64,2.63,.43,1.07-.23,1.72-.87,1.82-1.59-.61-.61-1.72-.97-2.79-.74-.32,.07-.61,.19-.86,.34,0,0,.18-.34,.36-.69,.09-.17,.18-.34,.26-.46,.07-.12,.12-.21,.12-.21l-.06-.03,.06,.03,.14-.24c.76-.14,1.46-.6,1.94-1.35,.6-.88,.67-1.95,.28-2.77-.88-.09-1.87,.4-2.5,1.35-.51,.8-.58,1.71-.34,2.42l-.14,.24h0s-.05,.08-.13,.21c-.08,.12-.17,.3-.26,.47-.18,.35-.36,.7-.36,.7-.02-.3-.08-.61-.2-.93-.39-1.06-1.18-1.85-2.06-2.05-.66,.54-.85,1.65-.47,2.71,.35,.96,1.12,1.63,1.9,1.86l-.11,.26-.64,1.43c-.04-.29-.12-.6-.26-.91-.46-1.02-1.34-1.77-2.21-1.89-.58,.61-.75,1.7-.27,2.73,.45,.94,1.26,1.55,2.06,1.72l-.1,.26s-.14,.37-.28,.73c-.07,.18-.14,.37-.19,.5-.05,.14-.08,.23-.08,.23-.07-.29-.16-.59-.32-.88-.52-.98-1.45-1.66-2.34-1.71-.27,.32-.43,.76-.46,1.24-.02,.48,.12,1.01,.4,1.51,.51,.9,1.36,1.45,2.17,1.56l-.08,.27s-.03,.09-.07,.23-.11,.33-.15,.52c-.1,.38-.19,.76-.19,.76-.09-.29-.22-.58-.41-.86-.61-.94-1.56-1.54-2.46-1.53-.53,.68-.45,1.8,.16,2.74,.56,.86,1.45,1.34,2.27,1.38l-.05,.27-.3,1.54c-.1-.28-.25-.56-.46-.83-.68-.89-1.71-1.42-2.59-1.34-.43,.72-.33,1.83,.35,2.72,.65,.81,1.58,1.23,2.4,1.21l-.04,.28-.21,1.55c-.12-.27-.28-.53-.51-.79-.73-.84-1.79-1.29-2.67-1.14-.39,.75-.23,1.84,.57,2.69,.7,.76,1.66,1.1,2.47,1.02l-.02,.28s-.03,.39-.06,.78c0,.39-.01,.78-.01,.78-.15-.26-.35-.51-.6-.75-.79-.78-1.87-1.14-2.74-.93-.36,.78-.04,1.86,.78,2.64,.75,.71,1.72,.97,2.53,.83v.28l.07,1.57c-.17-.25-.38-.48-.64-.7-.87-.71-1.99-1-2.83-.72-.25,.8,.11,1.86,.98,2.57,.8,.65,1.82,.83,2.6,.63l.03,.28,.16,1.56c-.18-.23-.4-.46-.68-.65-.91-.65-2.05-.84-2.86-.5-.1,.41-.04,.87,.15,1.31,.19,.44,.53,.86,1.01,1.18,.86,.58,1.87,.69,2.65,.43l.05,.28s.06,.39,.13,.77c.06,.39,.15,.77,.15,.77-.21-.22-.45-.42-.73-.6-.94-.58-2.09-.69-2.88-.28-.07,.42,0,.88,.23,1.3,.25,.42,.63,.81,1.12,1.09,.89,.52,1.91,.55,2.66,.23l.06,.27s.02,.1,.05,.24c.03,.14,.08,.33,.14,.52l.22,.75c-.22-.2-.48-.38-.79-.53-1.01-.5-2.13-.52-2.9-.06-.1,.85,.53,1.78,1.54,2.28,.92,.45,1.93,.41,2.66,.03,0,0,.02,.07,.04,.13,.02,.07,.05,.13,.05,.13,0,0,.13,.37,.25,.74,.13,.37,.27,.74,.27,.74-.23-.19-.5-.35-.82-.48-1.03-.43-2.18-.36-2.9,.16-.02,.85,.63,1.74,1.7,2.16,.96,.38,1.98,.25,2.67-.18l.11,.26s.15,.36,.31,.72c.15,.36,.32,.72,.32,.72-.25-.17-.53-.31-.85-.42h.03Z"/></g><path class="cls-5" d="M356.48,60V25.92h7.91V60h-7.91Z"/><path class="cls-5" d="M157.13,25.93v20.44c0,3.76-1.34,6.98-4.03,9.64s-5.91,3.99-9.68,3.99-7.02-1.33-9.69-3.99c-2.68-2.66-4.02-5.88-4.02-9.64V25.93h6.87v20.44c0,1.87,.67,3.48,2.01,4.81s2.95,2,4.84,2,3.48-.67,4.83-2,2.02-2.93,2.02-4.81V25.93h6.85Z"/><g><polygon class="cls-5" points="160.64 41.45 167.5 47.81 167.5 60 160.64 60 160.64 41.45"/><polygon class="cls-5" points="188.07 50.82 188.07 60 167.5 41.35 167.5 41.38 160.64 35.07 160.64 25.92 177.07 40.81 188.07 50.82"/><polygon class="cls-5" points="188.06 44.52 188.06 25.92 181.2 25.92 181.2 38.19 188.06 44.52"/></g><path class="cls-5" d="M261.29,25.93v13.63h10.27v-13.63h6.87V60h-6.87v-13.63h-10.27v13.63h-6.87V25.93h6.87Z"/><path class="cls-5" d="M310.65,30.94c3.36,3.34,5.04,7.35,5.04,12.03s-1.68,8.7-5.04,12.04c-3.36,3.33-7.39,5-12.1,5s-8.76-1.67-12.11-5c-3.35-3.33-5.03-7.35-5.03-12.04s1.68-8.69,5.03-12.03,7.39-5.01,12.11-5.01,8.74,1.67,12.1,5.01Zm-19.36,4.81c-2.01,2.01-3.01,4.41-3.01,7.22s1,5.22,3.01,7.22c2.01,1.99,4.43,2.99,7.26,2.99s5.24-1,7.26-2.99c2.02-1.99,3.03-4.4,3.03-7.22s-1.01-5.21-3.03-7.22-4.44-3.01-7.26-3.01-5.25,1-7.26,3.01Z"/><path class="cls-5" d="M347.98,30.94c3.36,3.34,5.04,7.35,5.04,12.03s-1.68,8.7-5.04,12.04c-3.36,3.33-7.39,5-12.1,5s-8.76-1.67-12.11-5c-3.35-3.33-5.03-7.35-5.03-12.04s1.68-8.69,5.03-12.03,7.39-5.01,12.11-5.01,8.74,1.67,12.1,5.01Zm-19.36,4.81c-2.01,2.01-3.01,4.41-3.01,7.22s1,5.22,3.01,7.22c2.01,1.99,4.43,2.99,7.26,2.99s5.24-1,7.26-2.99c2.02-1.99,3.03-4.4,3.03-7.22s-1.01-5.21-3.03-7.22-4.44-3.01-7.26-3.01-5.25,1-7.26,3.01Z"/><path class="cls-5" d="M248.23,50.19c-2.01,1.99-4.42,2.98-7.25,2.98s-5.25-1-7.26-2.99-3.01-4.4-3.01-7.22,1-5.21,3.01-7.22c2.01-2.01,4.43-3.01,7.26-3.01s5.23,1,7.26,3l2.76-6.54c-1.04-.74-2.16-1.39-3.38-1.92-2.08-.9-4.29-1.34-6.64-1.34-4.72,0-8.76,1.67-12.11,5.01s-5.03,7.35-5.03,12.03,1.68,8.7,5.03,12.04c3.35,3.33,7.39,5,12.11,5,2.35,0,4.57-.45,6.64-1.34,1.21-.52,2.33-1.17,3.37-1.91l-2.76-6.55v-.02Z"/><path class="cls-4" d="M107.89,40.89c-1.6-.49-3.3-1.26-5.09-2.31-1.8-1.05-3.41-2.44-4.84-4.17-1.43-1.73-2.15-3.88-2.15-6.46,0-3.88,1.56-7.21,4.7-9.98,3.13-2.77,6.9-4.16,11.31-4.16s8.15,1.39,11.28,4.16,4.7,6.1,4.7,9.98h-10.65c0-1.29-.52-2.4-1.57-3.32-1.05-.93-2.3-1.39-3.75-1.39s-2.73,.46-3.77,1.39c-1.04,.93-1.55,2.03-1.55,3.32,0,1.68,.77,2.95,2.3,3.82,1.53,.87,2.7,1.4,3.49,1.59,.37,.12,1.39,.39,3.06,.82,1.66,.43,3.42,1.14,5.26,2.14s3.5,2.34,4.98,4.03,2.22,3.85,2.22,6.48c0,3.9-1.57,7.24-4.7,10.01-3.13,2.77-6.89,4.16-11.28,4.16s-8.18-1.39-11.31-4.16-4.7-6.11-4.7-10.01h10.68c0,1.31,.52,2.42,1.55,3.34,1.04,.92,2.29,1.38,3.77,1.38s2.71-.46,3.75-1.38c1.05-.92,1.57-2.03,1.57-3.34,0-1.99-.9-3.28-2.69-3.86-1.8-.59-3.02-.99-3.66-1.2-.33-.1-1.3-.39-2.89-.88h-.02Z"/><path class="cls-4" d="M202.58,40.89c-1.6-.49-3.3-1.26-5.09-2.31-1.8-1.05-3.41-2.44-4.84-4.17-1.43-1.73-2.15-3.88-2.15-6.46,0-3.88,1.56-7.21,4.7-9.98,3.13-2.77,6.9-4.16,11.31-4.16s8.15,1.39,11.28,4.16,4.7,6.1,4.7,9.98h-10.65c0-1.29-.52-2.4-1.57-3.32-1.05-.93-2.3-1.39-3.75-1.39s-2.73,.46-3.77,1.39c-1.04,.93-1.55,2.03-1.55,3.32,0,1.68,.77,2.95,2.3,3.82s2.7,1.4,3.49,1.59c.37,.12,1.39,.39,3.06,.82,1.66,.43,3.42,1.14,5.26,2.14s3.5,2.34,4.98,4.03,2.22,3.85,2.22,6.48c0,3.9-1.57,7.24-4.7,10.01-3.13,2.77-6.89,4.16-11.28,4.16s-8.18-1.39-11.31-4.16c-3.13-2.77-4.7-6.11-4.7-10.01h10.68c0,1.31,.52,2.42,1.55,3.34,1.04,.92,2.29,1.38,3.77,1.38s2.71-.46,3.75-1.38c1.05-.92,1.57-2.03,1.57-3.34,0-1.99-.9-3.28-2.69-3.86-1.8-.59-3.02-.99-3.66-1.2-.33-.1-1.3-.39-2.89-.88h-.02Z"/><rect class="cls-9" x="95.94" y="65.89" width="270" height="23.78" rx="11.89" ry="11.89"/><g><path class="cls-1" d="M146.8,85.21l-1.77-1.69c3.21-1.12,4.62-2.56,4.62-6.67v-.63h-3.93v2.28c0,.73,.05,1.42,.07,1.76h-2.32c.05-.33,.1-1,.1-1.76v-2.28h-1.41c-.83,0-1.43,.04-1.79,.07v-2.28c.28,.05,.97,.15,1.79,.15h1.41v-1.65c0-.48-.05-1-.1-1.51h2.36c-.05,.32-.1,.85-.1,1.51v1.65h3.93v-1.76c0-.67-.05-1.22-.1-1.55h2.38c-.05,.33-.11,.88-.11,1.55v1.76h1.23c.88,0,1.38-.04,1.83-.12v2.22c-.36-.04-.95-.05-1.83-.05h-1.23v.55c0,4.14-.99,6.67-5,8.45h0Z"/><path class="cls-1" d="M180.88,80.4c2.84-1.69,5-4.25,6.04-6.5l1.29,2.36c-1.26,2.26-3.47,4.57-6.14,6.19-1.67,1.02-3.82,1.96-6.16,2.36l-1.39-2.21c2.59-.37,4.75-1.22,6.36-2.19h0Zm0-5.41l-1.69,1.74c-.86-.94-2.94-2.76-4.15-3.61l1.56-1.67c1.16,.79,3.32,2.53,4.28,3.55h0Z"/><path class="cls-1" d="M219.07,73.86c-.57,1.3-1.5,3.09-2.61,4.6,1.64,1.44,3.65,3.58,4.64,4.79l-1.9,1.65c-1.08-1.51-2.62-3.22-4.18-4.74-1.76,1.88-3.97,3.61-6.24,4.7l-1.71-1.8c2.68-1,5.25-3.05,6.81-4.8,1.1-1.25,2.11-2.91,2.47-4.1h-5.63c-.7,0-1.61,.1-1.96,.12v-2.38c.45,.07,1.46,.12,1.96,.12h5.86c.72,0,1.38-.1,1.71-.21l1.37,1.02c-.13,.19-.43,.71-.59,1.04h0Z"/><path class="cls-1" d="M247.51,72.82s-.04,.05-.05,.08h3.34c.51,0,1.06-.08,1.44-.2l1.69,1.05c-.19,.32-.42,.79-.55,1.21-.45,1.49-1.39,3.72-2.89,5.58-1.58,1.94-3.59,3.48-6.71,4.72l-1.96-1.77c3.4-1.02,5.25-2.48,6.69-4.13,1.13-1.3,2.09-3.31,2.36-4.57h-4.66c-1.12,1.46-2.56,2.93-4.18,4.05l-1.86-1.38c2.91-1.79,4.35-3.95,5.18-5.39,.25-.42,.59-1.19,.74-1.76l2.43,.8c-.38,.59-.82,1.34-1.01,1.71h0Z"/><path class="cls-1" d="M276.43,76.52h8.92c.78,0,1.51-.07,1.94-.1v2.63c-.4-.02-1.25-.08-1.94-.08h-8.92c-.95,0-2.06,.04-2.68,.08v-2.63c.59,.05,1.81,.1,2.68,.1Z"/><path class="cls-1" d="M308.92,79.55c.46-1.44,.48-4.6,.48-6.63,0-.67-.05-1.12-.15-1.54h2.44c-.02,.08-.11,.82-.11,1.52,0,1.97-.05,5.5-.5,7.19-.5,1.89-1.54,3.53-2.95,4.8l-2.03-1.36c1.46-1.04,2.36-2.57,2.82-4h0Zm5,3.01v-9.76c0-.75-.11-1.38-.13-1.44h2.47s-.11,.71-.11,1.46v8.75c1.35-.59,2.99-1.9,4.1-3.53l1.28,1.84c-1.38,1.8-3.77,3.61-5.63,4.57-.36,.2-.57,.37-.72,.5l-1.39-1.15c.07-.32,.13-.79,.13-1.24h0Z"/></g></svg>